solid T-Nut short for Bosch GTS10XC
facet normal 0.0 0.0 1.0
  outer loop
    vertex 25.5 18.0 3.0
    vertex 0.49999999999999994 20.0 3.0
    vertex 0.49999999999999994 18.0 3.0
  endloop
endfacet
facet normal 0.0 0.0 1.0
  outer loop
    vertex 0.49999999999999994 20.0 3.0
    vertex 25.5 18.0 3.0
    vertex 25.5 20.0 3.0
  endloop
endfacet
facet normal -0.0 -1.0 -0.0
  outer loop
    vertex 25.5 0.0 3.0
    vertex 0.49999999999999994 0.0 0.0
    vertex 25.5 0.0 0.0
  endloop
endfacet
facet normal -0.0 -1.0 -0.0
  outer loop
    vertex 0.49999999999999994 0.0 0.0
    vertex 25.5 0.0 3.0
    vertex 0.49999999999999994 0.0 3.0
  endloop
endfacet
facet normal -1.0 0.0 0.0
  outer loop
    vertex 0.49999999999999994 18.0 7.0
    vertex 0.49999999999999994 1.9999999999999996 3.0
    vertex 0.49999999999999994 1.9999999999999996 7.0
  endloop
endfacet
facet normal -1.0 0.0 0.0
  outer loop
    vertex 0.49999999999999994 1.9999999999999996 3.0
    vertex 0.49999999999999994 0.0 0.0
    vertex 0.49999999999999994 0.0 3.0
  endloop
endfacet
facet normal -1.0 0.0 0.0
  outer loop
    vertex 0.49999999999999994 0.0 0.0
    vertex 0.49999999999999994 1.9999999999999996 3.0
    vertex 0.49999999999999994 20.0 0.0
  endloop
endfacet
facet normal -1.0 0.0 0.0
  outer loop
    vertex 0.49999999999999994 20.0 0.0
    vertex 0.49999999999999994 1.9999999999999996 3.0
    vertex 0.49999999999999994 18.0 3.0
  endloop
endfacet
facet normal -1.0 0.0 0.0
  outer loop
    vertex 0.49999999999999994 18.0 3.0
    vertex 0.49999999999999994 1.9999999999999996 3.0
    vertex 0.49999999999999994 18.0 7.0
  endloop
endfacet
facet normal -1.0 0.0 0.0
  outer loop
    vertex 0.49999999999999994 20.0 0.0
    vertex 0.49999999999999994 18.0 3.0
    vertex 0.49999999999999994 20.0 3.0
  endloop
endfacet
facet normal 0.0 1.0 0.0
  outer loop
    vertex 0.49999999999999994 20.0 3.0
    vertex 25.5 20.0 0.0
    vertex 0.49999999999999994 20.0 0.0
  endloop
endfacet
facet normal 0.0 1.0 0.0
  outer loop
    vertex 25.5 20.0 0.0
    vertex 0.49999999999999994 20.0 3.0
    vertex 25.5 20.0 3.0
  endloop
endfacet
facet normal 1.0 0.0 0.0
  outer loop
    vertex 25.5 20.0 0.0
    vertex 25.5 0.0 3.0
    vertex 25.5 0.0 0.0
  endloop
endfacet
facet normal 1.0 0.0 0.0
  outer loop
    vertex 25.5 0.0 3.0
    vertex 25.5 20.0 0.0
    vertex 25.5 1.9999999999999998 3.0
  endloop
endfacet
facet normal 1.0 0.0 0.0
  outer loop
    vertex 25.5 1.9999999999999998 3.0
    vertex 25.5 20.0 0.0
    vertex 25.5 1.9999999999999998 7.0
  endloop
endfacet
facet normal 1.0 0.0 0.0
  outer loop
    vertex 25.5 1.9999999999999998 7.0
    vertex 25.5 20.0 0.0
    vertex 25.5 18.0 3.0
  endloop
endfacet
facet normal 1.0 0.0 0.0
  outer loop
    vertex 25.5 18.0 3.0
    vertex 25.5 20.0 0.0
    vertex 25.5 20.0 3.0
  endloop
endfacet
facet normal 1.0 0.0 0.0
  outer loop
    vertex 25.5 18.0 7.0
    vertex 25.5 1.9999999999999998 7.0
    vertex 25.5 18.0 3.0
  endloop
endfacet
facet normal 0.0 0.0 1.0
  outer loop
    vertex 25.5 0.0 3.0
    vertex 0.49999999999999994 1.9999999999999996 3.0
    vertex 0.49999999999999994 0.0 3.0
  endloop
endfacet
facet normal 0.0 0.0 1.0
  outer loop
    vertex 0.49999999999999994 1.9999999999999996 3.0
    vertex 25.5 0.0 3.0
    vertex 25.5 1.9999999999999998 3.0
  endloop
endfacet
facet normal 0.0 0.0 1.0
  outer loop
    vertex 0.49999999999999994 1.9999999999999996 7.0
    vertex 10.69917086240011 7.848562043755071 7.0
    vertex 0.49999999999999994 18.0 7.0
  endloop
endfacet
facet normal 0.0 0.0 1.0
  outer loop
    vertex 10.69917086240011 7.848562043755071 7.0
    vertex 0.49999999999999994 1.9999999999999996 7.0
    vertex 11.334402831546493 7.326372114066792 7.0
  endloop
endfacet
facet normal 0.0 0.0 1.0
  outer loop
    vertex 11.334402831546493 7.326372114066792 7.0
    vertex 0.49999999999999994 1.9999999999999996 7.0
    vertex 12.083142495193519 6.986385506425873 7.0
  endloop
endfacet
facet normal 0.0 0.0 1.0
  outer loop
    vertex 12.083142495193519 6.986385506425873 7.0
    vertex 0.49999999999999994 1.9999999999999996 7.0
    vertex 25.5 1.9999999999999998 7.0
  endloop
endfacet
facet normal 0.0 0.0 1.0
  outer loop
    vertex 0.49999999999999994 18.0 7.0
    vertex 10.69917086240011 7.848562043755071 7.0
    vertex 10.220736596681231 8.51736891474211 7.0
  endloop
endfacet
facet normal 0.0 0.0 1.0
  outer loop
    vertex 0.49999999999999994 18.0 7.0
    vertex 10.220736596681231 8.51736891474211 7.0
    vertex 9.931704538948589 9.287214644025761 7.0
  endloop
endfacet
facet normal 0.0 0.0 1.0
  outer loop
    vertex 0.49999999999999994 18.0 7.0
    vertex 9.931704538948589 9.287214644025761 7.0
    vertex 9.851771746288605 10.10563551738556 7.0
  endloop
endfacet
facet normal 0.0 0.0 1.0
  outer loop
    vertex 12.083142495193519 6.986385506425873 7.0
    vertex 25.5 1.9999999999999998 7.0
    vertex 12.894364482614437 6.851771746288605 7.0
  endloop
endfacet
facet normal 0.0 0.0 1.0
  outer loop
    vertex 12.894364482614437 6.851771746288605 7.0
    vertex 25.5 1.9999999999999998 7.0
    vertex 13.712785355974237 6.9317045389485905 7.0
  endloop
endfacet
facet normal 0.0 0.0 1.0
  outer loop
    vertex 13.712785355974237 6.9317045389485905 7.0
    vertex 25.5 1.9999999999999998 7.0
    vertex 14.482631085257887 7.220736596681232 7.0
  endloop
endfacet
facet normal 0.0 0.0 1.0
  outer loop
    vertex 14.482631085257887 7.220736596681232 7.0
    vertex 25.5 1.9999999999999998 7.0
    vertex 15.15143795624493 7.699170862400113 7.0
  endloop
endfacet
facet normal 0.0 0.0 1.0
  outer loop
    vertex 15.15143795624493 7.699170862400113 7.0
    vertex 25.5 1.9999999999999998 7.0
    vertex 15.673627885933206 8.334402831546495 7.0
  endloop
endfacet
facet normal 0.0 0.0 1.0
  outer loop
    vertex 15.673627885933206 8.334402831546495 7.0
    vertex 25.5 1.9999999999999998 7.0
    vertex 16.013614493574124 9.083142495193522 7.0
  endloop
endfacet
facet normal 0.0 0.0 1.0
  outer loop
    vertex 16.013614493574124 9.083142495193522 7.0
    vertex 25.5 1.9999999999999998 7.0
    vertex 16.14822825371139 9.89436448261444 7.0
  endloop
endfacet
facet normal 0.0 0.0 1.0
  outer loop
    vertex 0.49999999999999994 18.0 7.0
    vertex 12.28721464402576 13.06829546105141 7.0
    vertex 25.5 18.0 7.0
  endloop
endfacet
facet normal 0.0 0.0 1.0
  outer loop
    vertex 12.28721464402576 13.06829546105141 7.0
    vertex 0.49999999999999994 18.0 7.0
    vertex 11.51736891474211 12.779263403318767 7.0
  endloop
endfacet
facet normal 0.0 0.0 1.0
  outer loop
    vertex 11.51736891474211 12.779263403318767 7.0
    vertex 0.49999999999999994 18.0 7.0
    vertex 10.848562043755068 12.300829137599887 7.0
  endloop
endfacet
facet normal 0.0 0.0 1.0
  outer loop
    vertex 10.848562043755068 12.300829137599887 7.0
    vertex 0.49999999999999994 18.0 7.0
    vertex 10.326372114066793 11.665597168453505 7.0
  endloop
endfacet
facet normal 0.0 0.0 1.0
  outer loop
    vertex 10.326372114066793 11.665597168453505 7.0
    vertex 0.49999999999999994 18.0 7.0
    vertex 9.986385506425872 10.91685750480648 7.0
  endloop
endfacet
facet normal 0.0 0.0 1.0
  outer loop
    vertex 9.986385506425872 10.91685750480648 7.0
    vertex 0.49999999999999994 18.0 7.0
    vertex 9.851771746288605 10.10563551738556 7.0
  endloop
endfacet
facet normal 0.0 0.0 1.0
  outer loop
    vertex 25.5 18.0 7.0
    vertex 12.28721464402576 13.06829546105141 7.0
    vertex 13.105635517385558 13.148228253711395 7.0
  endloop
endfacet
facet normal 0.0 0.0 1.0
  outer loop
    vertex 25.5 18.0 7.0
    vertex 13.105635517385558 13.148228253711395 7.0
    vertex 13.916857504806476 13.013614493574128 7.0
  endloop
endfacet
facet normal 0.0 0.0 1.0
  outer loop
    vertex 25.5 18.0 7.0
    vertex 13.916857504806476 13.013614493574128 7.0
    vertex 14.665597168453504 12.67362788593321 7.0
  endloop
endfacet
facet normal 0.0 0.0 1.0
  outer loop
    vertex 25.5 18.0 7.0
    vertex 14.665597168453504 12.67362788593321 7.0
    vertex 15.300829137599885 12.15143795624493 7.0
  endloop
endfacet
facet normal 0.0 0.0 1.0
  outer loop
    vertex 25.5 18.0 7.0
    vertex 15.300829137599885 12.15143795624493 7.0
    vertex 15.779263403318765 11.482631085257891 7.0
  endloop
endfacet
facet normal 0.0 0.0 1.0
  outer loop
    vertex 25.5 18.0 7.0
    vertex 15.779263403318765 11.482631085257891 7.0
    vertex 16.06829546105141 10.712785355974239 7.0
  endloop
endfacet
facet normal 0.0 0.0 1.0
  outer loop
    vertex 25.5 18.0 7.0
    vertex 16.06829546105141 10.712785355974239 7.0
    vertex 16.14822825371139 9.89436448261444 7.0
  endloop
endfacet
facet normal 0.0 0.0 1.0
  outer loop
    vertex 25.5 18.0 7.0
    vertex 16.14822825371139 9.89436448261444 7.0
    vertex 25.5 1.9999999999999998 7.0
  endloop
endfacet
facet normal 2.0735047665793365e-18 -1.0 0.0
  outer loop
    vertex 25.5 1.9999999999999998 7.0
    vertex 0.49999999999999994 1.9999999999999996 3.0
    vertex 25.5 1.9999999999999998 3.0
  endloop
endfacet
facet normal 2.0735047665793365e-18 -1.0 0.0
  outer loop
    vertex 0.49999999999999994 1.9999999999999996 3.0
    vertex 25.5 1.9999999999999998 7.0
    vertex 0.49999999999999994 1.9999999999999996 7.0
  endloop
endfacet
facet normal 0.0 1.0 0.0
  outer loop
    vertex 0.49999999999999994 18.0 7.0
    vertex 25.5 18.0 3.0
    vertex 0.49999999999999994 18.0 3.0
  endloop
endfacet
facet normal 0.0 1.0 0.0
  outer loop
    vertex 25.5 18.0 3.0
    vertex 0.49999999999999994 18.0 7.0
    vertex 25.5 18.0 7.0
  endloop
endfacet
facet normal -0.9361932094128483 -0.3514858100254843 -0.0
  outer loop
    vertex 16.06829546105141 10.712785355974239 7.0
    vertex 15.779263403318762 11.482631085257884 3.5
    vertex 16.068295461051406 10.712785355974232 3.5
  endloop
endfacet
facet normal -0.9361932094128483 -0.3514858100254843 -0.0
  outer loop
    vertex 15.779263403318762 11.482631085257884 3.5
    vertex 16.06829546105141 10.712785355974239 7.0
    vertex 15.779263403318765 11.482631085257891 7.0
  endloop
endfacet
facet normal -0.8133219776504388 -0.5818138539694454 -0.0
  outer loop
    vertex 15.779263403318765 11.482631085257891 7.0
    vertex 15.300829137599882 12.151437956244923 3.5
    vertex 15.779263403318762 11.482631085257884 3.5
  endloop
endfacet
facet normal -0.8133219776504388 -0.5818138539694454 -0.0
  outer loop
    vertex 15.300829137599882 12.151437956244923 3.5
    vertex 15.779263403318765 11.482631085257891 7.0
    vertex 15.300829137599885 12.15143795624493 7.0
  endloop
endfacet
facet normal -0.6350241971892725 -0.7724922452582421 -0.0
  outer loop
    vertex 15.300829137599885 12.15143795624493 7.0
    vertex 14.665597168453502 12.673627885933202 3.5
    vertex 15.300829137599882 12.151437956244923 3.5
  endloop
endfacet
facet normal -0.6350241971892725 -0.7724922452582421 -0.0
  outer loop
    vertex 14.665597168453502 12.673627885933202 3.5
    vertex 15.300829137599885 12.15143795624493 7.0
    vertex 14.665597168453504 12.67362788593321 7.0
  endloop
endfacet
facet normal -0.4134505671167573 -0.9105265666364885 -0.0
  outer loop
    vertex 14.665597168453504 12.67362788593321 7.0
    vertex 13.916857504806474 13.013614493574119 3.5
    vertex 14.665597168453502 12.673627885933202 3.5
  endloop
endfacet
facet normal -0.4134505671167573 -0.9105265666364885 -0.0
  outer loop
    vertex 13.916857504806474 13.013614493574119 3.5
    vertex 14.665597168453504 12.67362788593321 7.0
    vertex 13.916857504806476 13.013614493574128 7.0
  endloop
endfacet
facet normal -0.16370096415460572 -0.9865100072147532 -0.0
  outer loop
    vertex 13.916857504806476 13.013614493574128 7.0
    vertex 13.105635517385556 13.148228253711386 3.5
    vertex 13.916857504806474 13.013614493574119 3.5
  endloop
endfacet
facet normal -0.16370096415460572 -0.9865100072147532 -0.0
  outer loop
    vertex 13.105635517385556 13.148228253711386 3.5
    vertex 13.916857504806476 13.013614493574128 7.0
    vertex 13.105635517385558 13.148228253711395 7.0
  endloop
endfacet
facet normal 0.09720458898605051 -0.9952644210862021 0.0
  outer loop
    vertex 13.105635517385558 13.148228253711395 7.0
    vertex 12.287214644025756 13.0682954610514 3.5
    vertex 13.105635517385556 13.148228253711386 3.5
  endloop
endfacet
facet normal 0.09720458898605051 -0.9952644210862021 0.0
  outer loop
    vertex 12.287214644025756 13.0682954610514 3.5
    vertex 13.105635517385558 13.148228253711395 7.0
    vertex 12.28721464402576 13.06829546105141 7.0
  endloop
endfacet
facet normal 0.35148581002548246 -0.9361932094128491 0.0
  outer loop
    vertex 12.28721464402576 13.06829546105141 7.0
    vertex 11.517368914742107 12.77926340331876 3.5
    vertex 12.287214644025756 13.0682954610514 3.5
  endloop
endfacet
facet normal 0.35148581002548246 -0.9361932094128491 0.0
  outer loop
    vertex 11.517368914742107 12.77926340331876 3.5
    vertex 12.28721464402576 13.06829546105141 7.0
    vertex 11.51736891474211 12.779263403318767 7.0
  endloop
endfacet
facet normal 0.5818138539694439 -0.8133219776504399 0.0
  outer loop
    vertex 11.51736891474211 12.779263403318767 7.0
    vertex 10.848562043755065 12.30082913759988 3.5
    vertex 11.517368914742107 12.77926340331876 3.5
  endloop
endfacet
facet normal 0.5818138539694439 -0.8133219776504399 0.0
  outer loop
    vertex 10.848562043755065 12.30082913759988 3.5
    vertex 11.51736891474211 12.779263403318767 7.0
    vertex 10.848562043755068 12.300829137599887 7.0
  endloop
endfacet
facet normal 0.7724922452582436 -0.6350241971892707 0.0
  outer loop
    vertex 10.848562043755065 12.30082913759988 3.5
    vertex 10.326372114066793 11.665597168453505 7.0
    vertex 10.326372114066789 11.665597168453498 3.5
  endloop
endfacet
facet normal 0.7724922452582436 -0.6350241971892707 0.0
  outer loop
    vertex 10.326372114066793 11.665597168453505 7.0
    vertex 10.848562043755065 12.30082913759988 3.5
    vertex 10.848562043755068 12.300829137599887 7.0
  endloop
endfacet
facet normal 0.9105265666364883 -0.41345056711675804 0.0
  outer loop
    vertex 10.326372114066789 11.665597168453498 3.5
    vertex 9.986385506425872 10.91685750480648 7.0
    vertex 9.986385506425869 10.916857504806472 3.5
  endloop
endfacet
facet normal 0.9105265666364883 -0.41345056711675804 0.0
  outer loop
    vertex 9.986385506425872 10.91685750480648 7.0
    vertex 10.326372114066789 11.665597168453498 3.5
    vertex 10.326372114066793 11.665597168453505 7.0
  endloop
endfacet
facet normal 0.9865100072147535 -0.16370096415460547 0.0
  outer loop
    vertex 9.986385506425869 10.916857504806472 3.5
    vertex 9.851771746288605 10.10563551738556 7.0
    vertex 9.851771746288602 10.105635517385553 3.5
  endloop
endfacet
facet normal 0.9865100072147535 -0.16370096415460547 0.0
  outer loop
    vertex 9.851771746288605 10.10563551738556 7.0
    vertex 9.986385506425869 10.916857504806472 3.5
    vertex 9.986385506425872 10.91685750480648 7.0
  endloop
endfacet
facet normal 0.9952644210862023 0.09720458898604882 0.0
  outer loop
    vertex 9.851771746288602 10.105635517385553 3.5
    vertex 9.931704538948589 9.287214644025761 7.0
    vertex 9.931704538948587 9.287214644025754 3.5
  endloop
endfacet
facet normal 0.9952644210862023 0.09720458898604882 0.0
  outer loop
    vertex 9.931704538948589 9.287214644025761 7.0
    vertex 9.851771746288602 10.105635517385553 3.5
    vertex 9.851771746288605 10.10563551738556 7.0
  endloop
endfacet
facet normal 0.9361932094128492 0.3514858100254819 0.0
  outer loop
    vertex 9.931704538948587 9.287214644025754 3.5
    vertex 10.220736596681231 8.51736891474211 7.0
    vertex 10.220736596681228 8.517368914742104 3.5
  endloop
endfacet
facet normal 0.9361932094128492 0.3514858100254819 0.0
  outer loop
    vertex 10.220736596681231 8.51736891474211 7.0
    vertex 9.931704538948587 9.287214644025754 3.5
    vertex 9.931704538948589 9.287214644025761 7.0
  endloop
endfacet
facet normal 0.8133219776504396 0.5818138539694443 0.0
  outer loop
    vertex 10.220736596681228 8.517368914742104 3.5
    vertex 10.69917086240011 7.848562043755071 7.0
    vertex 10.699170862400107 7.848562043755064 3.5
  endloop
endfacet
facet normal 0.8133219776504396 0.5818138539694443 0.0
  outer loop
    vertex 10.69917086240011 7.848562043755071 7.0
    vertex 10.220736596681228 8.517368914742104 3.5
    vertex 10.220736596681231 8.51736891474211 7.0
  endloop
endfacet
facet normal 0.6350241971892718 0.7724922452582426 0.0
  outer loop
    vertex 10.69917086240011 7.848562043755071 7.0
    vertex 11.334402831546491 7.326372114066785 3.5
    vertex 10.699170862400107 7.848562043755064 3.5
  endloop
endfacet
facet normal 0.6350241971892718 0.7724922452582426 0.0
  outer loop
    vertex 11.334402831546491 7.326372114066785 3.5
    vertex 10.69917086240011 7.848562043755071 7.0
    vertex 11.334402831546493 7.326372114066792 7.0
  endloop
endfacet
facet normal 0.41345056711675715 0.9105265666364886 0.0
  outer loop
    vertex 11.334402831546493 7.326372114066792 7.0
    vertex 12.083142495193515 6.986385506425866 3.5
    vertex 11.334402831546491 7.326372114066785 3.5
  endloop
endfacet
facet normal 0.41345056711675715 0.9105265666364886 0.0
  outer loop
    vertex 12.083142495193515 6.986385506425866 3.5
    vertex 11.334402831546493 7.326372114066792 7.0
    vertex 12.083142495193519 6.986385506425873 7.0
  endloop
endfacet
facet normal 0.16370096415460741 0.9865100072147531 0.0
  outer loop
    vertex 12.083142495193519 6.986385506425873 7.0
    vertex 12.894364482614433 6.851771746288598 3.5
    vertex 12.083142495193515 6.986385506425866 3.5
  endloop
endfacet
facet normal 0.16370096415460741 0.9865100072147531 0.0
  outer loop
    vertex 12.894364482614433 6.851771746288598 3.5
    vertex 12.083142495193519 6.986385506425873 7.0
    vertex 12.894364482614437 6.851771746288605 7.0
  endloop
endfacet
facet normal -0.09720458898605035 0.9952644210862022 0.0
  outer loop
    vertex 12.894364482614437 6.851771746288605 7.0
    vertex 13.712785355974233 6.931704538948583 3.5
    vertex 12.894364482614433 6.851771746288598 3.5
  endloop
endfacet
facet normal -0.09720458898605035 0.9952644210862022 0.0
  outer loop
    vertex 13.712785355974233 6.931704538948583 3.5
    vertex 12.894364482614437 6.851771746288605 7.0
    vertex 13.712785355974237 6.9317045389485905 7.0
  endloop
endfacet
facet normal -0.3514858100254819 0.9361932094128492 0.0
  outer loop
    vertex 13.712785355974237 6.9317045389485905 7.0
    vertex 14.482631085257884 7.220736596681225 3.5
    vertex 13.712785355974233 6.931704538948583 3.5
  endloop
endfacet
facet normal -0.3514858100254819 0.9361932094128492 0.0
  outer loop
    vertex 14.482631085257884 7.220736596681225 3.5
    vertex 13.712785355974237 6.9317045389485905 7.0
    vertex 14.482631085257887 7.220736596681232 7.0
  endloop
endfacet
facet normal -0.5818138539694439 0.8133219776504399 0.0
  outer loop
    vertex 14.482631085257887 7.220736596681232 7.0
    vertex 15.151437956244926 7.699170862400106 3.5
    vertex 14.482631085257884 7.220736596681225 3.5
  endloop
endfacet
facet normal -0.5818138539694439 0.8133219776504399 0.0
  outer loop
    vertex 15.151437956244926 7.699170862400106 3.5
    vertex 14.482631085257887 7.220736596681232 7.0
    vertex 15.15143795624493 7.699170862400113 7.0
  endloop
endfacet
facet normal -0.7724922452582436 0.6350241971892707 0.0
  outer loop
    vertex 15.15143795624493 7.699170862400113 7.0
    vertex 15.673627885933202 8.334402831546488 3.5
    vertex 15.151437956244926 7.699170862400106 3.5
  endloop
endfacet
facet normal -0.7724922452582436 0.6350241971892707 0.0
  outer loop
    vertex 15.673627885933202 8.334402831546488 3.5
    vertex 15.15143795624493 7.699170862400113 7.0
    vertex 15.673627885933206 8.334402831546495 7.0
  endloop
endfacet
facet normal -0.9105265666364885 0.4134505671167573 0.0
  outer loop
    vertex 15.673627885933206 8.334402831546495 7.0
    vertex 16.013614493574124 9.083142495193515 3.5
    vertex 15.673627885933202 8.334402831546488 3.5
  endloop
endfacet
facet normal -0.9105265666364885 0.4134505671167573 0.0
  outer loop
    vertex 16.013614493574124 9.083142495193515 3.5
    vertex 15.673627885933206 8.334402831546495 7.0
    vertex 16.013614493574124 9.083142495193522 7.0
  endloop
endfacet
facet normal -0.9865100072147532 0.16370096415460572 0.0
  outer loop
    vertex 16.013614493574124 9.083142495193522 7.0
    vertex 16.148228253711387 9.894364482614433 3.5
    vertex 16.013614493574124 9.083142495193515 3.5
  endloop
endfacet
facet normal -0.9865100072147532 0.16370096415460572 0.0
  outer loop
    vertex 16.148228253711387 9.894364482614433 3.5
    vertex 16.013614493574124 9.083142495193522 7.0
    vertex 16.14822825371139 9.89436448261444 7.0
  endloop
endfacet
facet normal -0.9952644210862025 -0.09720458898604713 -0.0
  outer loop
    vertex 16.14822825371139 9.89436448261444 7.0
    vertex 16.068295461051406 10.712785355974232 3.5
    vertex 16.148228253711387 9.894364482614433 3.5
  endloop
endfacet
facet normal -0.9952644210862025 -0.09720458898604713 -0.0
  outer loop
    vertex 16.068295461051406 10.712785355974232 3.5
    vertex 16.14822825371139 9.89436448261444 7.0
    vertex 16.06829546105141 10.712785355974239 7.0
  endloop
endfacet
facet normal 0.0 0.0 -1.0
  outer loop
    vertex 0.49999999999999994 20.0 0.0
    vertex 10.123442464672692 14.997150205572227 1.249503657453536e-13
    vertex 0.49999999999999994 0.0 0.0
  endloop
endfacet
facet normal 0.0 0.0 -1.0
  outer loop
    vertex 10.123442464672692 14.997150205572227 1.249503657453536e-13
    vertex 0.49999999999999994 20.0 0.0
    vertex 25.5 20.0 0.0
  endloop
endfacet
facet normal 0.0 0.0 -1.0
  outer loop
    vertex 0.49999999999999994 0.0 0.0
    vertex 10.123442464672692 14.997150205572227 1.249503657453536e-13
    vertex 7.266969406632225 10.034890715229313 9.111076795477881e-14
  endloop
endfacet
facet normal 0.0 0.0 -1.0
  outer loop
    vertex 10.123442464672692 14.997150205572227 1.249503657453536e-13
    vertex 25.5 20.0 0.0
    vertex 15.849392458819585 14.997150205572227 1.3623023167554517e-13
  endloop
endfacet
facet normal 0.0 0.0 -1.0
  outer loop
    vertex 15.849392458819585 14.997150205572227 1.3623023167554517e-13
    vertex 25.5 20.0 0.0
    vertex 18.70586551686005 10.034890715229313 9.111076795477881e-14
  endloop
endfacet
facet normal 0.0 0.0 -1.0
  outer loop
    vertex 0.49999999999999994 0.0 0.0
    vertex 10.123442464672692 5.072631224885346 1.023906338849704e-13
    vertex 25.5 0.0 0.0
  endloop
endfacet
facet normal 0.0 0.0 -1.0
  outer loop
    vertex 10.123442464672692 5.072631224885346 1.023906338849704e-13
    vertex 0.49999999999999994 0.0 0.0
    vertex 7.266969406632225 10.034890715229313 9.111076795477881e-14
  endloop
endfacet
facet normal 0.0 0.0 -1.0
  outer loop
    vertex 25.5 0.0 0.0
    vertex 10.123442464672692 5.072631224885346 1.023906338849704e-13
    vertex 15.849392458819585 5.072631224885346 1.1367049981516198e-13
  endloop
endfacet
facet normal 0.0 0.0 -1.0
  outer loop
    vertex 25.5 0.0 0.0
    vertex 15.849392458819585 5.072631224885346 1.1367049981516198e-13
    vertex 18.70586551686005 10.034890715229313 9.111076795477881e-14
  endloop
endfacet
facet normal 0.0 0.0 -1.0
  outer loop
    vertex 25.5 0.0 0.0
    vertex 18.70586551686005 10.034890715229313 9.111076795477881e-14
    vertex 25.5 20.0 0.0
  endloop
endfacet
facet normal 6.576469203964181e-16 2.0386141786736703e-15 -1.0
  outer loop
    vertex 10.12344246467269 14.997150205572218 3.500000000000125
    vertex 9.851771746288602 10.105635517385553 3.5
    vertex 7.266969406632222 10.034890715229306 3.500000000000091
  endloop
endfacet
facet normal 6.576469203964181e-16 2.0386141786736703e-15 -1.0
  outer loop
    vertex 9.851771746288602 10.105635517385553 3.5
    vertex 10.12344246467269 14.997150205572218 3.500000000000125
    vertex 9.986385506425869 10.916857504806472 3.5
  endloop
endfacet
facet normal 6.576469203964181e-16 2.0386141786736703e-15 -1.0
  outer loop
    vertex 9.986385506425869 10.916857504806472 3.5
    vertex 10.12344246467269 14.997150205572218 3.500000000000125
    vertex 10.326372114066789 11.665597168453498 3.5
  endloop
endfacet
facet normal 6.576469203964181e-16 2.0386141786736703e-15 -1.0
  outer loop
    vertex 10.326372114066789 11.665597168453498 3.5
    vertex 10.12344246467269 14.997150205572218 3.500000000000125
    vertex 10.848562043755065 12.30082913759988 3.5
  endloop
endfacet
facet normal 6.576469203964181e-16 2.0386141786736703e-15 -1.0
  outer loop
    vertex 10.848562043755065 12.30082913759988 3.5
    vertex 10.12344246467269 14.997150205572218 3.500000000000125
    vertex 11.517368914742107 12.77926340331876 3.5
  endloop
endfacet
facet normal 6.576469203964181e-16 2.0386141786736703e-15 -1.0
  outer loop
    vertex 11.517368914742107 12.77926340331876 3.5
    vertex 10.12344246467269 14.997150205572218 3.500000000000125
    vertex 15.849392458819581 14.997150205572218 3.500000000000136
  endloop
endfacet
facet normal 6.576469203964181e-16 2.0386141786736703e-15 -1.0
  outer loop
    vertex 11.517368914742107 12.77926340331876 3.5
    vertex 15.849392458819581 14.997150205572218 3.500000000000136
    vertex 12.287214644025756 13.0682954610514 3.5
  endloop
endfacet
facet normal 6.576469203964181e-16 2.0386141786736703e-15 -1.0
  outer loop
    vertex 12.287214644025756 13.0682954610514 3.5
    vertex 15.849392458819581 14.997150205572218 3.500000000000136
    vertex 13.105635517385556 13.148228253711386 3.5
  endloop
endfacet
facet normal 6.576469203964181e-16 2.0386141786736703e-15 -1.0
  outer loop
    vertex 13.105635517385556 13.148228253711386 3.5
    vertex 15.849392458819581 14.997150205572218 3.500000000000136
    vertex 13.916857504806474 13.013614493574119 3.5
  endloop
endfacet
facet normal 6.576469203964181e-16 2.0386141786736703e-15 -1.0
  outer loop
    vertex 13.916857504806474 13.013614493574119 3.5
    vertex 15.849392458819581 14.997150205572218 3.500000000000136
    vertex 14.665597168453502 12.673627885933202 3.5
  endloop
endfacet
facet normal 6.576469203964181e-16 2.0386141786736703e-15 -1.0
  outer loop
    vertex 14.665597168453502 12.673627885933202 3.5
    vertex 15.849392458819581 14.997150205572218 3.500000000000136
    vertex 15.300829137599882 12.151437956244923 3.5
  endloop
endfacet
facet normal 6.576469203964181e-16 2.0386141786736703e-15 -1.0
  outer loop
    vertex 15.300829137599882 12.151437956244923 3.5
    vertex 15.849392458819581 14.997150205572218 3.500000000000136
    vertex 15.779263403318762 11.482631085257884 3.5
  endloop
endfacet
facet normal 6.576469203964181e-16 2.0386141786736703e-15 -1.0
  outer loop
    vertex 15.779263403318762 11.482631085257884 3.5
    vertex 15.849392458819581 14.997150205572218 3.500000000000136
    vertex 16.068295461051406 10.712785355974232 3.5
  endloop
endfacet
facet normal 6.576469203964181e-16 2.0386141786736703e-15 -1.0
  outer loop
    vertex 16.068295461051406 10.712785355974232 3.5
    vertex 15.849392458819581 14.997150205572218 3.500000000000136
    vertex 18.70586551686005 10.034890715229306 3.500000000000091
  endloop
endfacet
facet normal 6.576469203964181e-16 2.0386141786736703e-15 -1.0
  outer loop
    vertex 16.068295461051406 10.712785355974232 3.5
    vertex 18.70586551686005 10.034890715229306 3.500000000000091
    vertex 16.148228253711387 9.894364482614433 3.5
  endloop
endfacet
facet normal 6.576469203964181e-16 2.0386141786736703e-15 -1.0
  outer loop
    vertex 9.851771746288602 10.105635517385553 3.5
    vertex 10.12344246467269 5.072631224885339 3.500000000000102
    vertex 7.266969406632222 10.034890715229306 3.500000000000091
  endloop
endfacet
facet normal 6.576469203964181e-16 2.0386141786736703e-15 -1.0
  outer loop
    vertex 10.12344246467269 5.072631224885339 3.500000000000102
    vertex 9.851771746288602 10.105635517385553 3.5
    vertex 9.931704538948587 9.287214644025754 3.5
  endloop
endfacet
facet normal 6.576469203964181e-16 2.0386141786736703e-15 -1.0
  outer loop
    vertex 10.12344246467269 5.072631224885339 3.500000000000102
    vertex 9.931704538948587 9.287214644025754 3.5
    vertex 10.220736596681228 8.517368914742104 3.5
  endloop
endfacet
facet normal 6.576469203964181e-16 2.0386141786736703e-15 -1.0
  outer loop
    vertex 10.12344246467269 5.072631224885339 3.500000000000102
    vertex 10.220736596681228 8.517368914742104 3.5
    vertex 10.699170862400107 7.848562043755064 3.5
  endloop
endfacet
facet normal 6.576469203964181e-16 2.0386141786736703e-15 -1.0
  outer loop
    vertex 10.12344246467269 5.072631224885339 3.500000000000102
    vertex 10.699170862400107 7.848562043755064 3.5
    vertex 11.334402831546491 7.326372114066785 3.5
  endloop
endfacet
facet normal 6.576469203964181e-16 2.0386141786736703e-15 -1.0
  outer loop
    vertex 10.12344246467269 5.072631224885339 3.500000000000102
    vertex 11.334402831546491 7.326372114066785 3.5
    vertex 15.849392458819581 5.072631224885339 3.5000000000001132
  endloop
endfacet
facet normal 6.576469203964181e-16 2.0386141786736703e-15 -1.0
  outer loop
    vertex 15.849392458819581 5.072631224885339 3.5000000000001132
    vertex 11.334402831546491 7.326372114066785 3.5
    vertex 12.083142495193515 6.986385506425866 3.5
  endloop
endfacet
facet normal 6.576469203964181e-16 2.0386141786736703e-15 -1.0
  outer loop
    vertex 15.849392458819581 5.072631224885339 3.5000000000001132
    vertex 12.083142495193515 6.986385506425866 3.5
    vertex 12.894364482614433 6.851771746288598 3.5
  endloop
endfacet
facet normal 6.576469203964181e-16 2.0386141786736703e-15 -1.0
  outer loop
    vertex 15.849392458819581 5.072631224885339 3.5000000000001132
    vertex 12.894364482614433 6.851771746288598 3.5
    vertex 13.712785355974233 6.931704538948583 3.5
  endloop
endfacet
facet normal 6.576469203964181e-16 2.0386141786736703e-15 -1.0
  outer loop
    vertex 15.849392458819581 5.072631224885339 3.5000000000001132
    vertex 13.712785355974233 6.931704538948583 3.5
    vertex 14.482631085257884 7.220736596681225 3.5
  endloop
endfacet
facet normal 6.576469203964181e-16 2.0386141786736703e-15 -1.0
  outer loop
    vertex 15.849392458819581 5.072631224885339 3.5000000000001132
    vertex 14.482631085257884 7.220736596681225 3.5
    vertex 15.151437956244926 7.699170862400106 3.5
  endloop
endfacet
facet normal 6.576469203964181e-16 2.0386141786736703e-15 -1.0
  outer loop
    vertex 15.849392458819581 5.072631224885339 3.5000000000001132
    vertex 15.151437956244926 7.699170862400106 3.5
    vertex 15.673627885933202 8.334402831546488 3.5
  endloop
endfacet
facet normal 6.576469203964181e-16 2.0386141786736703e-15 -1.0
  outer loop
    vertex 15.849392458819581 5.072631224885339 3.5000000000001132
    vertex 15.673627885933202 8.334402831546488 3.5
    vertex 16.013614493574124 9.083142495193515 3.5
  endloop
endfacet
facet normal 6.576469203964181e-16 2.0386141786736703e-15 -1.0
  outer loop
    vertex 15.849392458819581 5.072631224885339 3.5000000000001132
    vertex 16.013614493574124 9.083142495193515 3.5
    vertex 18.70586551686005 10.034890715229306 3.500000000000091
  endloop
endfacet
facet normal 6.576469203964181e-16 2.0386141786736703e-15 -1.0
  outer loop
    vertex 18.70586551686005 10.034890715229306 3.500000000000091
    vertex 16.013614493574124 9.083142495193515 3.5
    vertex 16.148228253711387 9.894364482614433 3.5
  endloop
endfacet
facet normal -0.8666666666651288 -0.4988876515725306 -1.5870001044035217e-15
  outer loop
    vertex 15.849392458819581 14.997150205572218 3.500000000000136
    vertex 18.70586551686005 10.034890715229313 9.111076795477881e-14
    vertex 18.70586551686005 10.034890715229306 3.500000000000091
  endloop
endfacet
facet normal -0.8666666666651288 -0.4988876515725306 -1.5870001044035217e-15
  outer loop
    vertex 18.70586551686005 10.034890715229313 9.111076795477881e-14
    vertex 15.849392458819581 14.997150205572218 3.500000000000136
    vertex 15.849392458819585 14.997150205572227 1.3623023167554517e-13
  endloop
endfacet
facet normal -0.8666666666651744 0.498887651572451 4.470787757182275e-16
  outer loop
    vertex 18.70586551686005 10.034890715229306 3.500000000000091
    vertex 15.849392458819585 5.072631224885346 1.1367049981516198e-13
    vertex 15.849392458819581 5.072631224885339 3.5000000000001132
  endloop
endfacet
facet normal -0.8666666666651744 0.498887651572451 4.470787757182275e-16
  outer loop
    vertex 15.849392458819585 5.072631224885346 1.1367049981516198e-13
    vertex 18.70586551686005 10.034890715229306 3.500000000000091
    vertex 18.70586551686005 10.034890715229313 9.111076795477881e-14
  endloop
endfacet
facet normal -4.0159789453859365e-30 1.0 2.0386141786736707e-15
  outer loop
    vertex 10.12344246467269 5.072631224885339 3.500000000000102
    vertex 15.849392458819585 5.072631224885346 1.1367049981516198e-13
    vertex 10.123442464672692 5.072631224885346 1.023906338849704e-13
  endloop
endfacet
facet normal -4.0159789453859365e-30 1.0 2.0386141786736707e-15
  outer loop
    vertex 15.849392458819585 5.072631224885346 1.1367049981516198e-13
    vertex 10.12344246467269 5.072631224885339 3.500000000000102
    vertex 15.849392458819581 5.072631224885339 3.5000000000001132
  endloop
endfacet
facet normal 0.8666666666651744 0.498887651572451 1.5870001044033896e-15
  outer loop
    vertex 10.123442464672692 5.072631224885346 1.023906338849704e-13
    vertex 7.266969406632222 10.034890715229306 3.500000000000091
    vertex 10.12344246467269 5.072631224885339 3.500000000000102
  endloop
endfacet
facet normal 0.8666666666651744 0.498887651572451 1.5870001044033896e-15
  outer loop
    vertex 7.266969406632222 10.034890715229306 3.500000000000091
    vertex 10.123442464672692 5.072631224885346 1.023906338849704e-13
    vertex 7.266969406632225 10.034890715229313 9.111076795477881e-14
  endloop
endfacet
facet normal 0.8666666666651288 -0.4988876515725306 -4.4707877571841985e-16
  outer loop
    vertex 7.266969406632225 10.034890715229313 9.111076795477881e-14
    vertex 10.12344246467269 14.997150205572218 3.500000000000125
    vertex 7.266969406632222 10.034890715229306 3.500000000000091
  endloop
endfacet
facet normal 0.8666666666651288 -0.4988876515725306 -4.4707877571841985e-16
  outer loop
    vertex 10.12344246467269 14.997150205572218 3.500000000000125
    vertex 7.266969406632225 10.034890715229313 9.111076795477881e-14
    vertex 10.123442464672692 14.997150205572227 1.249503657453536e-13
  endloop
endfacet
facet normal 4.0159789453859365e-30 -1.0 -2.0386141786736707e-15
  outer loop
    vertex 15.849392458819585 14.997150205572227 1.3623023167554517e-13
    vertex 10.12344246467269 14.997150205572218 3.500000000000125
    vertex 10.123442464672692 14.997150205572227 1.249503657453536e-13
  endloop
endfacet
facet normal 4.0159789453859365e-30 -1.0 -2.0386141786736707e-15
  outer loop
    vertex 10.12344246467269 14.997150205572218 3.500000000000125
    vertex 15.849392458819585 14.997150205572227 1.3623023167554517e-13
    vertex 15.849392458819581 14.997150205572218 3.500000000000136
  endloop
endfacet
endsolid T-Nut short for Bosch GTS10XC
